<svg width="1440" height="2234" viewBox="0 0 1440 2234" fill="none" xmlns="http://www.w3.org/2000/svg">
<path d="M1718.91 1248.37C1823.37 1343.82 1762.37 1497.09 1718.8 1561.79L1094.51 2559.65L-927.868 1294.38L-303.577 296.527C-264.445 229.053 -153.299 107.154 -21.7723 159.346C142.635 224.586 197.85 127.465 268.364 64.9953C338.878 2.52527 422.68 -51.6316 510.854 88.175C599.029 227.982 709.919 325.571 894.473 240.402C1042.12 172.267 1123.35 204.908 1150.21 221.715C1177.08 238.521 1241.96 297.297 1245.27 459.87C1249.4 663.087 1385.66 720.122 1549.95 738.266C1714.24 756.41 1702.19 855.458 1676.86 946.193C1651.52 1036.93 1588.33 1129.06 1718.91 1248.37Z" fill="url(#paint0_linear_1_846)"/>
<defs>
<linearGradient id="paint0_linear_1_846" x1="700.612" y1="316.66" x2="-185.596" y2="1895.51" gradientUnits="userSpaceOnUse">
<stop stop-color="#71C1C1"/>
<stop offset="0.514113" stop-color="#B8E0E0"/>
<stop offset="1" stop-color="#E3F3F3"/>
</linearGradient>
</defs>
</svg>
