<svg width="1440" height="300" viewBox="0 0 1440 1008" fill="none" xmlns="http://www.w3.org/2000/svg">
    <path d="M493 907C280 605 53.6667 724.333 -281 720V-100H1785.5V421.5C1919.5 762.7 1749.5 962.5 1382.5 874C1126.5 812.267 682.422 1175.57 493 907Z" fill="#66E5C8"/>
    <path d="M411.5 851C198.5 549 -27.8333 668.333 -362.5 664V-159H1704V365.5C1838 706.7 1641.5 939.5 1274.5 851C1018.5 789.267 600.922 1119.57 411.5 851Z" fill="#92EDD8"/>
    <path d="M280 851C67 549 -159.333 668.333 -494 664V-110H1572.5V365.5C1706.5 706.7 1536.5 906.5 1169.5 818C913.5 756.267 469.422 1119.57 280 851Z" fill="#D3F8EF" fill-opacity="0.5"/>
    </svg>
    